Coordinates
version=1
nRows=6
nColumns=36
inDegrees=yes

Units are S.I. units (second, meters, Newtons, ...)
If the header above contains a line with 'inDegrees', this indicates whether rotational values are in degrees (yes) or radians (no).

endheader
time	pelvis_tilt	pelvis_list	pelvis_rotation	pelvis_tx	pelvis_ty	pelvis_tz	hip_flexion_r	hip_adduction_r	hip_rotation_r	knee_angle_r	knee_angle_r_beta	ankle_angle_r	subtalar_angle_r	mtp_angle_r	hip_flexion_l	hip_adduction_l	hip_rotation_l	knee_angle_l	knee_angle_l_beta	ankle_angle_l	subtalar_angle_l	mtp_angle_l	lumbar_extension	lumbar_bending	lumbar_rotation	arm_flex_r	arm_add_r	arm_rot_r	elbow_flex_r	pro_sup_r	arm_flex_l	arm_add_l	arm_rot_l	elbow_flex_l	pro_sup_l
      6.75000000	    -12.26019879	     -2.76988636	     -1.94474319	     -0.28299046	      0.66768000	     -0.53787162	     75.04358411	      1.23027321	     -7.62770503	    107.49948873	      1.87622002	     44.68572704	    -13.35212389	     -7.49999987	     80.68747027	    -16.51876043	     12.14535462	    110.50390451	      1.92865697	     29.70980555	    -13.16101143	     -7.49999987	    -33.68428377	      5.51696755	     -0.04597603	     54.55123966	    -12.14283767	     -1.45028636	     90.59220205	    106.91139563	     39.46934041	    -17.15495436	    -15.11621482	    101.09269256	     96.10987131
      6.76000000	    -12.31630447	     -2.79485488	     -1.91110057	     -0.28257310	      0.67115187	     -0.53771491	     74.69285544	      1.25508449	     -7.66005375	    106.91147679	      1.86595728	     44.60401730	    -13.29678727	     -7.49999987	     80.29920737	    -16.48891224	     11.98530978	    109.91663987	      1.91840727	     29.69324798	    -13.21919190	     -7.49999987	    -33.42337682	      5.49034826	     -0.04770400	     54.16985047	    -12.10493676	     -1.51514468	     90.49092884	    106.89674211	     39.14747414	    -17.10765011	    -15.09040203	    101.04767205	     96.11736219
      6.77000000	    -12.10388822	     -2.70260242	     -1.95328840	     -0.28209000	      0.67540277	     -0.53741661	     74.04286362	      1.32706732	     -7.54808208	    106.28231244	      1.85497629	     44.26349221	    -13.43097939	     -7.49999987	     79.48614079	    -16.53392780	     11.58245011	    109.23586678	      1.90652554	     29.55637332	    -13.84453922	     -7.49999987	    -33.44165545	      5.28617996	     -0.03809657	     53.84389760	    -11.81295368	     -1.94509198	     90.25463177	    106.83212578	     38.94902473	    -17.06968056	    -15.04660156	    100.87515400	     96.17029967
      6.78000000	    -12.23863872	     -2.72703174	     -1.89462667	     -0.28164514	      0.67942208	     -0.53731234	     73.71208031	      1.35132586	     -7.56245106	    105.57779278	      1.84268010	     44.19493539	    -13.37369683	     -7.49999987	     79.11625132	    -16.45610449	     11.42553200	    108.55880839	      1.89470864	     29.50454839	    -13.84215381	     -7.49999987	    -33.05833443	      5.28490959	     -0.06021578	     53.37056130	    -11.82264583	     -1.92615811	     90.14437213	    106.82415304	     38.54378249	    -16.97720467	    -14.98625444	    100.81428319	     96.17940253
      6.79000000	    -12.16631269	     -2.59363024	     -1.83751083	     -0.28118524	      0.68423633	     -0.53716718	     73.14293433	      1.31401360	     -7.41996395	    104.83630101	      1.82973863	     43.78077520	    -13.50300307	     -7.49999987	     78.38074283	    -16.33769627	     10.99628751	    107.74609507	      1.88052412	     29.19909721	    -14.38375104	     -7.49999987	    -32.88414268	      5.10860015	     -0.12416944	     52.94952616	    -11.68865564	     -2.15246851	     89.82985390	    106.76932392	     38.28702810	    -16.89673332	    -14.83940899	    100.49287285	     96.22828402
      6.80000000	    -12.32311739	     -2.61227853	     -1.76592482	     -0.28062774	      0.68894739	     -0.53703135	     72.74451074	      1.30983552	     -7.45350001	    104.01780428	      1.81545317	     43.71282592	    -13.42723877	     -7.49999987	     77.97013364	    -16.25117320	     10.78958264	    106.98524262	      1.86724473	     29.12102295	    -14.36248416	     -7.49999987	    -32.45254114	      5.11767625	     -0.13112807	     52.37295256	    -11.72034552	     -2.11691426	     89.70244709	    106.76093760	     37.76944243	    -16.76362745	    -14.78332987	    100.41110707	     96.23240609
